<svg width="631" height="645" viewBox="0 0 631 645" fill="none" xmlns="http://www.w3.org/2000/svg">
<path d="M436.781 309.046L393.607 333.973L393.434 396.291L285.626 458.533L285.597 508.037L393.401 445.939L393.41 433.491L447.573 402.22L501.24 433.381L501.198 495.55L447.554 526.522L415.263 507.835L317.926 564.032L317.912 589.085L263.875 620.125L210.015 589.004L210.185 526.832L220.853 520.831L220.922 420.496L177.778 396.221L177.791 371.614L177.975 296.703L177.992 271.806L231.831 240.722L231.874 178.48L210.307 165.528L210.477 103.73L264.381 72.6082L318.243 103.657L318.2 165.826L296.678 178.252L296.649 215.743L382.865 265.514L415.243 246.964L415.449 234.258L469.223 203.212L523.212 234.331L523.17 296.5L469.141 327.406L436.781 309.046Z" fill="#A81F33"/>
<path d="M393.508 445.241L393.517 432.793L447.378 463.841L447.336 526.011L415.3 507.464" stroke="white" stroke-width="2" stroke-miterlimit="10" stroke-linecap="round" stroke-linejoin="round"/>
<path d="M425.861 464.036L393.7 445.274L285.763 507.592L318.118 526.242L425.861 464.036Z" stroke="white" stroke-width="2" stroke-miterlimit="10" stroke-linecap="round" stroke-linejoin="round"/>
<path d="M318.117 526.242L318.091 563.587L426.028 501.27L426.054 463.924L318.117 526.242Z" stroke="white" stroke-width="2" stroke-miterlimit="10" stroke-linecap="round" stroke-linejoin="round"/>
<path d="M210.191 588.124L210.23 526.099L264.092 557.148L264.05 619.318L210.191 588.124Z" stroke="white" stroke-width="2" stroke-miterlimit="10" stroke-linecap="round" stroke-linejoin="round"/>
<path d="M317.952 588.196L264.048 619.317L264.09 557.148L317.801 525.692L317.952 588.196Z" stroke="white" stroke-width="2" stroke-miterlimit="10" stroke-linecap="round" stroke-linejoin="round"/>
<path d="M501.242 494.89L447.338 526.011L447.38 463.841L501.284 432.72L501.242 494.89Z" stroke="white" stroke-width="2" stroke-miterlimit="10" stroke-linecap="round" stroke-linejoin="round"/>
<path d="M285.569 507.33L317.994 526.026L264.091 557.148L210.229 526.099" stroke="white" stroke-width="2" stroke-miterlimit="10" stroke-linecap="round" stroke-linejoin="round"/>
<path d="M253.308 439.44L253.247 538.52L285.628 519.825L285.665 457.571" stroke="white" stroke-width="2" stroke-miterlimit="10" stroke-linecap="round" stroke-linejoin="round"/>
<path d="M415.473 246.337L415.483 233.442L469.345 264.49L469.303 326.66L436.816 307.856" stroke="white" stroke-width="2" stroke-miterlimit="10" stroke-linecap="round" stroke-linejoin="round"/>
<path d="M447.377 463.841L393.515 432.793L447.419 401.671L501.28 432.72L447.377 463.841Z" stroke="white" stroke-width="2" stroke-miterlimit="10" stroke-linecap="round" stroke-linejoin="round"/>
<path d="M220.895 519.87L253.25 538.52L253.311 439.44" stroke="white" stroke-width="2" stroke-miterlimit="10" stroke-linecap="round" stroke-linejoin="round"/>
<path d="M177.885 295.816L177.903 270.92L285.753 333.087L285.666 457.572L177.827 395.125L177.848 370.01" stroke="white" stroke-width="2" stroke-miterlimit="10" stroke-linecap="round" stroke-linejoin="round"/>
<path d="M393.741 295.785L447.709 264.626L415.348 245.965L382.967 264.66" stroke="white" stroke-width="2" stroke-miterlimit="10" stroke-linecap="round" stroke-linejoin="round"/>
<path d="M523.21 295.539L469.307 326.66L469.349 264.49L523.252 233.369L523.21 295.539Z" stroke="white" stroke-width="2" stroke-miterlimit="10" stroke-linecap="round" stroke-linejoin="round"/>
<path d="M393.743 295.785L393.717 333.13L447.685 301.972L447.711 264.626L393.743 295.785Z" stroke="white" stroke-width="2" stroke-miterlimit="10" stroke-linecap="round" stroke-linejoin="round"/>
<path d="M393.606 395.254L285.669 457.572L285.756 333.087L393.693 270.769L393.606 395.254Z" stroke="white" stroke-width="2" stroke-miterlimit="10" stroke-linecap="round" stroke-linejoin="round"/>
<path d="M469.349 264.49L415.488 233.442L469.391 202.32L523.253 233.369L469.349 264.49Z" stroke="white" stroke-width="2" stroke-miterlimit="10" stroke-linecap="round" stroke-linejoin="round"/>
<path d="M296.628 214.819L393.693 270.769L285.756 333.087L177.906 270.919L232.511 239.393" fill="#A81F33"/>
<path d="M296.628 214.819L393.693 270.769L285.756 333.087L177.906 270.919L232.511 239.393" stroke="white" stroke-width="2" stroke-miterlimit="10" stroke-linecap="round" stroke-linejoin="round"/>
<path d="M264.286 171.272L264.226 258.411L296.607 239.716L296.653 177.328" fill="#A81F33"/>
<path d="M264.286 171.272L264.226 258.411L296.607 239.716L296.653 177.328" stroke="white" stroke-width="2" stroke-miterlimit="10" stroke-linecap="round" stroke-linejoin="round"/>
<path d="M231.909 177.736L231.87 239.761L264.225 258.411L264.271 196.023" fill="#A81F33"/>
<path d="M231.909 177.736L231.87 239.761L264.225 258.411L264.271 196.023" stroke="white" stroke-width="2" stroke-miterlimit="10" stroke-linecap="round" stroke-linejoin="round"/>
<path d="M210.479 164.792L210.518 102.768L264.38 133.816L264.338 195.986L210.479 164.792Z" stroke="white" stroke-width="2" stroke-miterlimit="10" stroke-linecap="round" stroke-linejoin="round"/>
<path d="M318.244 164.864L264.34 195.986L264.382 133.816L318.286 102.695L318.244 164.864Z" stroke="white" stroke-width="2" stroke-miterlimit="10" stroke-linecap="round" stroke-linejoin="round"/>
<path d="M264.379 133.816L210.517 102.768L264.421 71.6462L318.282 102.695L264.379 133.816Z" fill="#A81F33" stroke="white" stroke-width="2" stroke-miterlimit="10" stroke-linecap="round" stroke-linejoin="round"/>
<path d="M436.821 308.085L393.646 333.012L393.473 395.329L285.666 457.572L285.636 507.075L393.441 444.978L393.45 432.529L447.613 401.258L501.28 432.419L501.238 494.589L447.593 525.56L415.303 506.873L317.965 563.071L317.952 588.124L263.915 619.164L210.054 588.043L210.225 525.871L220.892 519.87L220.962 419.535L177.818 395.259L177.83 370.652L178.014 295.742L178.032 270.845L231.871 239.761L231.914 177.518L210.347 164.566L210.517 102.768L264.42 71.6465L318.282 102.695L318.24 164.865L296.717 177.291L296.689 214.781L382.904 264.553L415.283 246.003L415.488 233.297L469.263 202.25L523.251 233.369L523.209 295.539L469.181 326.445L436.821 308.085Z" stroke="white" stroke-width="2" stroke-miterlimit="10" stroke-linecap="round" stroke-linejoin="round"/>
</svg>
